<svg width="87" height="26" viewBox="0 0 87 26" fill="none" xmlns="http://www.w3.org/2000/svg">
<g filter="url(#filter0_i_256_11470)">
<path d="M9.92792 26L9.94666 3.01585H-3.05176e-05V0H24.0706V3.01585H12.9625L12.9438 26H9.92792Z" fill="white"/>
<path d="M26.6563 26L26.7125 0H29.7097L29.6535 26H26.6563Z" fill="white"/>
<path d="M32.2954 26V0H55.7853V3.01585H35.3113V11.4078H50.8214V14.4424H35.3113V22.9841H55.8603V26H32.2954Z" fill="white"/>
<path d="M58.4273 26V0H74.0498C83.0037 0 86.1319 5.03891 86.1319 10.1153C86.1319 14.6297 83.6218 18.5447 78.3394 19.781L84.3711 26H80.2875L74.799 20.4553L66.7068 20.4928V17.4769L74.2746 17.4395C80.3624 17.402 83.0973 14.1988 83.0973 10.1153C83.0973 6.85591 80.8307 3.01585 74.0498 3.01585H61.4431V26H58.4273Z" fill="white"/>
</g>
<defs>
<filter id="filter0_i_256_11470" x="-3.05176e-05" y="0" width="86.1319" height="26.2047" filterUnits="userSpaceOnUse" color-interpolation-filters="sRGB">
<feFlood flood-opacity="0" result="BackgroundImageFix"/>
<feBlend mode="normal" in="SourceGraphic" in2="BackgroundImageFix" result="shape"/>
<feColorMatrix in="SourceAlpha" type="matrix" values="0 0 0 0 0 0 0 0 0 0 0 0 0 0 0 0 0 0 127 0" result="hardAlpha"/>
<feOffset dy="0.204724"/>
<feGaussianBlur stdDeviation="0.102362"/>
<feComposite in2="hardAlpha" operator="arithmetic" k2="-1" k3="1"/>
<feColorMatrix type="matrix" values="0 0 0 0 1 0 0 0 0 1 0 0 0 0 1 0 0 0 1 0"/>
<feBlend mode="overlay" in2="shape" result="effect1_innerShadow_256_11470"/>
</filter>
</defs>
</svg>
